<svg xmlns="http://www.w3.org/2000/svg" xmlns:xlink="http://www.w3.org/1999/xlink" version="1.1" data-diagram-type="DESCRIPTION" style="width:1780px;height:1451px;background:#FAFAFA;" width="1780px" height="1451px" viewBox="0 0 1780 1451" zoomAndPan="magnify" preserveAspectRatio="none" contentStyleType="text/css"><?plantuml 1.2026.8?><defs/><g font-family="sans-serif" lengthAdjust="spacing"><rect x="0" y="0" width="1780" height="1451" fill="#FAFAFA" style="stroke:none;"/><g class="title" data-source-line="4"><text x="688.689" y="87.17" fill="#000" font-size="25" textLength="400.623" font-weight="700">collab-ai · How it fits together</text></g><!--cluster Local--><g class="cluster" data-qualified-name="Local" id="ent0001" data-source-line="69"><rect x="31" y="139.443" width="1716" height="1120.68" fill="none" style="stroke:#808080;stroke-width:2;stroke-dasharray:5,5;" rx="2.5" ry="2.5"/><text x="835.32" y="166.912" fill="#000" font-size="16" textLength="107.359" font-weight="700">One machine</text></g><!--cluster CodexPath--><g class="cluster" data-qualified-name="Local.CodexPath" id="ent0002" data-source-line="70"><rect x="55" y="204.443" width="601" height="860.28" fill="none" style="stroke:#808080;stroke-width:2;stroke-dasharray:5,5;" rx="2.5" ry="2.5"/><text x="200.219" y="231.912" fill="#000" font-size="16" textLength="310.563" font-weight="700">Managed Codex · automatic listening</text></g><!--cluster ClaudePath--><g class="cluster" data-qualified-name="Local.ClaudePath" id="ent0009" data-source-line="79"><rect x="680" y="204.443" width="376" height="506.64" fill="none" style="stroke:#808080;stroke-width:2;stroke-dasharray:5,5;" rx="2.5" ry="2.5"/><text x="715.172" y="231.912" fill="#000" font-size="16" textLength="305.656" font-weight="700">Claude channel · automatic listening</text></g><!--cluster ManualPath--><g class="cluster" data-qualified-name="Local.ManualPath" id="ent0013" data-source-line="85"><rect x="1080" y="204.443" width="395" height="506.64" fill="none" style="stroke:#808080;stroke-width:2;stroke-dasharray:5,5;" rx="2.5" ry="2.5"/><text x="1135.242" y="231.912" fill="#000" font-size="16" textLength="284.516" font-weight="700">Alternative · manual inbox checks</text></g><!--entity BrokerSocket--><g class="entity" data-qualified-name="Local.BrokerSocket" id="ent0017" data-source-line="91"><path d="M806.64,801.583 L806.64,897.826 A2.5,2.5 0 0 0 809.14,900.326 L1138.867,900.326 A2.5,2.5 0 0 0 1141.367,897.826 L1141.367,809.083 L1131.367,799.083 L809.14,799.083 A2.5,2.5 0 0 0 806.64,801.583" style="stroke:#181818;stroke-width:0.5;" fill="#FCE4F0"/><path d="M1131.367,799.083 L1131.367,806.583 A2.5,2.5 0 0 0 1133.867,809.083 L1141.367,809.083" style="stroke:#181818;stroke-width:0.5;" fill="#FCE4F0"/><text x="826.64" y="838.419" fill="#000" font-size="20" textLength="209.697" font-weight="700">Broker socket · UDS</text><text x="826.64" y="858.107" fill="#000" font-size="16" textLength="157.266">/tmp/collab-ai.sock</text><text x="826.64" y="876.951" fill="#000" font-size="16" textLength="294.727" font-style="italic">Broker-owned endpoint (default path)</text></g><!--entity Broker--><g class="entity" data-qualified-name="Local.Broker" id="ent0018" data-source-line="92"><rect x="844.21" y="966.323" width="259.578" height="82.398" fill="#ADD8E6" style="stroke:#181818;stroke-width:0.5;" rx="2.5" ry="2.5"/><text x="864.21" y="1005.659" fill="#000" font-size="20" textLength="167.646" font-weight="700">collab-ai broker</text><text x="864.21" y="1025.347" fill="#000" font-size="16" textLength="219.578" font-style="italic">One owner per logical inbox</text></g><!--entity Console--><g class="entity" data-qualified-name="Local.Console" id="ent0019" data-source-line="93"><rect x="1491.43" y="612.683" width="239.148" height="82.398" fill="#FFF3B0" style="stroke:#181818;stroke-width:0.5;" rx="2.5" ry="2.5"/><text x="1511.43" y="652.019" fill="#000" font-size="20" textLength="177.705" font-weight="700">Operator console</text><text x="1511.43" y="671.707" fill="#000" font-size="16" textLength="199.148">collab status / dashboard</text></g><!--entity Store--><g class="entity" data-qualified-name="Local.Store" id="ent0020" data-source-line="94"><path d="M828.35,1162.723 C828.35,1152.723 974.002,1152.723 974.002,1152.723 C974.002,1152.723 1119.655,1152.723 1119.655,1162.723 L1119.655,1234.122 C1119.655,1244.122 974.002,1244.122 974.002,1244.122 C974.002,1244.122 828.35,1244.122 828.35,1234.122 L828.35,1162.723" style="stroke:#181818;stroke-width:0.5;" fill="#F1F1F1"/><path d="M828.35,1162.723 C828.35,1172.723 974.002,1172.723 974.002,1172.723 C974.002,1172.723 1119.655,1172.723 1119.655,1162.723" style="stroke:#181818;stroke-width:0.5;" fill="none"/><text x="848.35" y="1206.059" fill="#000" font-size="20" textLength="65.859" font-weight="700">SQLite</text><text x="848.35" y="1225.747" fill="#000" font-size="16" textLength="251.305">Messages, sessions and receipts</text></g><!--entity Human--><g class="entity" data-qualified-name="Local.CodexPath.Human" id="ent0003" data-source-line="71"><ellipse cx="145.004" cy="269.943" rx="8" ry="8" fill="#F1F1F1" style="stroke:#181818;stroke-width:0.5;"/><path d="M145.004,277.943 L145.004,304.943 M132.004,285.943 L158.004,285.943 M145.004,304.943 L132.004,319.943 M145.004,304.943 L158.004,319.943" style="stroke:#181818;stroke-width:0.5;" fill="none"/><text x="81.5" y="346.912" fill="#000" font-size="16" textLength="127.008">Human operator</text></g><!--entity Launcher--><g class="entity" data-qualified-name="Local.CodexPath.Launcher" id="ent0004" data-source-line="72"><rect x="347.62" y="269.663" width="292.764" height="82.398" fill="#FFF3B0" style="stroke:#181818;stroke-width:0.5;" rx="2.5" ry="2.5"/><text x="367.62" y="308.999" fill="#000" font-size="20" textLength="252.764" font-weight="700">collab-codex --terminal</text><text x="367.62" y="328.687" fill="#000" font-size="16" textLength="137.148" font-style="italic">Launch command</text></g><!--entity UI--><g class="entity" data-qualified-name="Local.CodexPath.UI" id="ent0005" data-source-line="73"><rect x="102.72" y="445.283" width="224.561" height="82.398" fill="#98FB98" style="stroke:#181818;stroke-width:0.5;" rx="2.5" ry="2.5"/><text x="122.72" y="484.619" fill="#000" font-size="20" textLength="184.561" font-weight="700">Codex terminal UI</text><text x="122.72" y="504.307" fill="#000" font-size="16" textLength="184.242" font-style="italic">Normal Codex interface</text></g><!--entity Proxy--><g class="entity" data-qualified-name="Local.CodexPath.Proxy" id="ent0006" data-source-line="74"><rect x="243.49" y="612.683" width="227.021" height="82.398" fill="#ADD8E6" style="stroke:#181818;stroke-width:0.5;" rx="2.5" ry="2.5"/><text x="263.49" y="652.019" fill="#000" font-size="20" textLength="187.021" font-weight="700">Proxy and listener</text><text x="263.49" y="671.707" fill="#000" font-size="16" textLength="153.625" font-style="italic">Inside collab-codex</text></g><!--entity AppServer--><g class="entity" data-qualified-name="Local.CodexPath.AppServer" id="ent0007" data-source-line="75"><rect x="73.43" y="808.503" width="223.135" height="82.398" fill="#98FB98" style="stroke:#181818;stroke-width:0.5;" rx="2.5" ry="2.5"/><text x="93.43" y="847.839" fill="#000" font-size="20" textLength="183.135" font-weight="700">Codex App Server</text><text x="93.43" y="867.527" fill="#000" font-size="16" textLength="163.18" font-style="italic">One managed thread</text></g><!--entity Relay--><g class="entity" data-qualified-name="Local.CodexPath.Relay" id="ent0008" data-source-line="76"><rect x="160.74" y="966.323" width="200.527" height="82.398" fill="#F1F1F1" style="stroke:#181818;stroke-width:0.5;" rx="2.5" ry="2.5"/><text x="180.74" y="1005.659" fill="#000" font-size="20" textLength="160.527" font-weight="700">MCP stdio relay</text><text x="180.74" y="1025.347" fill="#000" font-size="16" textLength="158.531" font-style="italic">collab_runtime tools</text></g><!--entity ClaudeHuman--><g class="entity" data-qualified-name="Local.ClaudePath.ClaudeHuman" id="ent0010" data-source-line="80"><ellipse cx="820.004" cy="269.943" rx="8" ry="8" fill="#F1F1F1" style="stroke:#181818;stroke-width:0.5;"/><path d="M820.004,277.943 L820.004,304.943 M807.004,285.943 L833.004,285.943 M820.004,304.943 L807.004,319.943 M820.004,304.943 L833.004,319.943" style="stroke:#181818;stroke-width:0.5;" fill="none"/><text x="756.5" y="346.912" fill="#000" font-size="16" textLength="127.008">Human operator</text></g><!--entity Claude--><g class="entity" data-qualified-name="Local.ClaudePath.Claude" id="ent0011" data-source-line="81"><rect x="695.63" y="445.283" width="344.75" height="82.398" fill="#98FB98" style="stroke:#181818;stroke-width:0.5;" rx="2.5" ry="2.5"/><text x="715.63" y="484.619" fill="#000" font-size="20" textLength="129.199" font-weight="700">Claude Code</text><text x="715.63" y="504.307" fill="#000" font-size="16" textLength="304.75" font-style="italic">Channel opt-in and org policy required</text></g><!--entity ClaudeMCP--><g class="entity" data-qualified-name="Local.ClaudePath.ClaudeMCP" id="ent0012" data-source-line="82"><rect x="723.82" y="612.683" width="288.352" height="82.398" fill="#F1F1F1" style="stroke:#181818;stroke-width:0.5;" rx="2.5" ry="2.5"/><text x="743.82" y="652.019" fill="#000" font-size="20" textLength="117.5" font-weight="700">collab-mcp</text><text x="743.82" y="671.707" fill="#000" font-size="16" textLength="248.352">--claude-channel --auto-listen</text></g><!--entity ManualHuman--><g class="entity" data-qualified-name="Local.ManualPath.ManualHuman" id="ent0014" data-source-line="86"><ellipse cx="1220.004" cy="269.943" rx="8" ry="8" fill="#F1F1F1" style="stroke:#181818;stroke-width:0.5;"/><path d="M1220.004,277.943 L1220.004,304.943 M1207.004,285.943 L1233.004,285.943 M1220.004,304.943 L1207.004,319.943 M1220.004,304.943 L1233.004,319.943" style="stroke:#181818;stroke-width:0.5;" fill="none"/><text x="1156.5" y="346.912" fill="#000" font-size="16" textLength="127.008">Human operator</text></g><!--entity ManualAgent--><g class="entity" data-qualified-name="Local.ManualPath.ManualAgent" id="ent0015" data-source-line="87"><rect x="1095.97" y="454.713" width="268.057" height="63.555" fill="#98FB98" style="stroke:#181818;stroke-width:0.5;" rx="2.5" ry="2.5"/><text x="1115.97" y="494.049" fill="#000" font-size="20" textLength="228.057" font-weight="700">Codex or Claude Code</text></g><!--entity ManualMCP--><g class="entity" data-qualified-name="Local.ManualPath.ManualMCP" id="ent0016" data-source-line="88"><rect x="1096.25" y="612.683" width="157.5" height="82.398" fill="#F1F1F1" style="stroke:#181818;stroke-width:0.5;" rx="2.5" ry="2.5"/><text x="1116.25" y="652.019" fill="#000" font-size="20" textLength="117.5" font-weight="700">collab-mcp</text><text x="1116.25" y="671.707" fill="#000" font-size="16" textLength="104.969" font-style="italic">Default mode</text></g><!--link Human to Launcher--><g class="link" data-entity-1="ent0003" data-entity-2="ent0004" id="lnk21" data-source-line="98" data-link-type="dependency"><path d="M218.59,310.863 C255.98,310.863 297.8,310.863 342.17,310.863" style="stroke:#4B0082;stroke-width:1;stroke-dasharray:7,7;" fill="none" id="Human-to-Launcher"/><polygon points="347.17,310.863,338.17,306.863,342.17,310.863,338.17,314.863,347.17,310.863" fill="#4B0082" style="stroke:#4B0082;stroke-width:1;stroke-linejoin:miter;stroke-miterlimit:10;"/><text x="249.06" y="294.332" fill="#000" font-size="16" textLength="68.516">launches</text></g><!--link Launcher to UI--><g class="link" data-entity-1="ent0004" data-entity-2="ent0005" id="lnk22" data-source-line="99" data-link-type="dependency"><path d="M443.91,352.403 C406.63,382.173 358.6,419.553 337,432.283 C329.64,436.633 326.312,438.567 318.382,442.577" style="stroke:#4B0082;stroke-width:1;stroke-dasharray:7,7;" fill="none" id="Launcher-to-UI"/><polygon points="313.92,444.833,323.757,444.342,318.382,442.577,320.146,437.202,313.92,444.833" fill="#4B0082" style="stroke:#4B0082;stroke-width:1;stroke-linejoin:miter;stroke-miterlimit:10;"/><text x="428.12" y="409.252" fill="#000" font-size="16" textLength="43.664">starts</text></g><!--link Launcher to Proxy--><g class="link" data-entity-1="ent0004" data-entity-2="ent0006" id="lnk23" data-source-line="100" data-link-type="dependency"><path d="M506.16,352.313 C521.54,412.133 540.26,525.153 489,599.683 C483.96,607.013 481.675,610.262 474.675,615.712" style="stroke:#4B0082;stroke-width:1;stroke-dasharray:7,7;" fill="none" id="Launcher-to-Proxy"/><polygon points="470.73,618.783,480.289,616.411,474.675,615.712,475.374,610.098,470.73,618.783" fill="#4B0082" style="stroke:#4B0082;stroke-width:1;stroke-linejoin:miter;stroke-miterlimit:10;"/><text x="533.57" y="492.952" fill="#000" font-size="16" textLength="34.563">runs</text></g><!--link Proxy to AppServer--><g class="link" data-entity-1="ent0006" data-entity-2="ent0007" id="lnk24" data-source-line="101" data-link-type="dependency"><path d="M243.22,673.883 C185.23,686.133 123.32,704.083 106,727.083 C90.23,748.033 94.59,762.473 106,786.083 C109.88,794.123 111.908,797.826 118.178,804.396" style="stroke:#4B0082;stroke-width:1;stroke-dasharray:7,7;" fill="none" id="Proxy-to-AppServer"/><polygon points="121.63,808.013,118.31,798.741,118.178,804.396,112.523,804.264,121.63,808.013" fill="#4B0082" style="stroke:#4B0082;stroke-width:1;stroke-linejoin:miter;stroke-miterlimit:10;"/><text x="117" y="763.052" fill="#000" font-size="16" textLength="43.664">starts</text></g><!--link Proxy to AppServer--><g class="link" data-entity-1="ent0006" data-entity-2="ent0007" id="lnk28" data-source-line="107" data-link-type="dependency"><path d="M247.744,698.223 C234.214,706.993 225.86,714.723 216,727.083 C197.65,750.073 190.63,777.68 187.53,803.32" style="stroke:#008080;stroke-width:2;" fill="none" id="Proxy-AppServer"/><polygon points="251.94,695.503,242.212,697.042,247.744,698.223,246.563,703.755,251.94,695.503" fill="#008080" style="stroke:#008080;stroke-width:2;stroke-linejoin:miter;stroke-miterlimit:10;"/><polygon points="186.93,808.283,191.981,799.829,187.53,803.32,184.039,798.868,186.93,808.283" fill="#008080" style="stroke:#008080;stroke-width:2;stroke-linejoin:miter;stroke-miterlimit:10;"/><text x="284.77" y="753.552" fill="#000" font-size="16" textLength="141.242">App Server / stdio</text><text x="227" y="772.396" fill="#000" font-size="16" textLength="256.781">Tools and incoming peer context</text></g><!--link AppServer to Relay--><g class="link" data-entity-1="ent0007" data-entity-2="ent0008" id="lnk25" data-source-line="102" data-link-type="dependency"><path d="M152.95,891.003 C141.35,910.703 133.78,934.213 146,953.323 C150.03,959.623 151.261,961.897 156.871,966.817" style="stroke:#4B0082;stroke-width:1;stroke-dasharray:7,7;" fill="none" id="AppServer-to-Relay"/><polygon points="160.63,970.113,156.501,961.172,156.871,966.817,151.226,967.186,160.63,970.113" fill="#4B0082" style="stroke:#4B0082;stroke-width:1;stroke-linejoin:miter;stroke-miterlimit:10;"/><text x="157" y="939.792" fill="#000" font-size="16" textLength="43.664">starts</text></g><!--link AppServer to Relay--><g class="link" data-entity-1="ent0007" data-entity-2="ent0008" id="lnk29" data-source-line="108" data-link-type="dependency"><path d="M208.273,895.832 C211.973,903.122 213.5,906.203 217,913.323 C225.44,930.513 232.396,945.087 240.096,961.497" style="stroke:#008080;stroke-width:2;" fill="none" id="AppServer-Relay"/><polygon points="206.01,891.373,206.516,901.209,208.273,895.832,213.65,897.588,206.01,891.373" fill="#008080" style="stroke:#008080;stroke-width:2;stroke-linejoin:miter;stroke-miterlimit:10;"/><polygon points="242.22,966.023,242.018,956.177,240.096,961.497,234.776,959.575,242.22,966.023" fill="#008080" style="stroke:#008080;stroke-width:2;stroke-linejoin:miter;stroke-miterlimit:10;"/><text x="246.41" y="939.792" fill="#000" font-size="16" textLength="90.875">MCP / stdio</text></g><!--link Human to UI--><g class="link" data-entity-1="ent0003" data-entity-2="ent0005" id="lnk26" data-source-line="105" data-link-type="dependency"><path d="M158.262,365.49 C164.482,387.81 171.64,409.493 182,432.283 C183.89,436.443 183.647,436.279 185.927,440.439" style="stroke:#4B0082;stroke-width:2;" fill="none" id="Human-UI"/><polygon points="156.92,360.673,155.483,370.417,158.262,365.49,163.189,368.269,156.92,360.673" fill="#4B0082" style="stroke:#4B0082;stroke-width:2;stroke-linejoin:miter;stroke-miterlimit:10;"/><polygon points="188.33,444.823,187.512,435.009,185.927,440.439,180.497,438.854,188.33,444.823" fill="#4B0082" style="stroke:#4B0082;stroke-width:2;stroke-linejoin:miter;stroke-miterlimit:10;"/><text x="193" y="399.752" fill="#000" font-size="16" textLength="127.445">prompts, output</text><text x="202.148" y="418.596" fill="#000" font-size="16" textLength="109.148">and approvals</text></g><!--link UI to Proxy--><g class="link" data-entity-1="ent0005" data-entity-2="ent0006" id="lnk27" data-source-line="106" data-link-type="dependency"><path d="M200.772,532.884 C195.892,555.874 195.61,579.173 210,599.683 C218.57,611.903 225.881,618.903 238.931,626.163" style="stroke:#008080;stroke-width:2;" fill="none" id="UI-Proxy"/><polygon points="201.81,527.993,196.028,535.967,200.772,532.884,203.854,537.628,201.81,527.993" fill="#008080" style="stroke:#008080;stroke-width:2;stroke-linejoin:miter;stroke-miterlimit:10;"/><polygon points="243.3,628.593,237.38,620.722,238.931,626.163,233.491,627.713,243.3,628.593" fill="#008080" style="stroke:#008080;stroke-width:2;stroke-linejoin:miter;stroke-miterlimit:10;"/><text x="221" y="576.652" fill="#000" font-size="16" textLength="251.344">WebSocket / private Unix socket</text></g><!--link Relay to Proxy--><g class="link" data-entity-1="ent0008" data-entity-2="ent0006" id="lnk30" data-source-line="109" data-link-type="dependency"><path d="M349.792,962.486 C353.812,958.616 353.87,957.873 357,953.323 C396.28,896.303 329.19,847.193 379,799.083 C398.45,780.293 481.93,806.203 500,786.083 C508.76,776.333 506.87,738.253 500,727.083 C492.28,714.533 485.676,707.007 473.636,698.327" style="stroke:#008080;stroke-width:2;" fill="none" id="Relay-Proxy"/><polygon points="346.19,965.953,355.448,962.593,349.792,962.486,349.9,956.83,346.19,965.953" fill="#008080" style="stroke:#008080;stroke-width:2;stroke-linejoin:miter;stroke-miterlimit:10;"/><polygon points="469.58,695.403,474.541,703.911,473.636,698.327,479.22,697.422,469.58,695.403" fill="#008080" style="stroke:#008080;stroke-width:2;stroke-linejoin:miter;stroke-miterlimit:10;"/><text x="409.211" y="846.672" fill="#000" font-size="16" textLength="201.477">MCP / private Unix socket</text><text x="390" y="865.516" fill="#000" font-size="16" textLength="239.898">Same listener and inbox owner</text></g><!--link ClaudeHuman to Claude--><g class="link" data-entity-1="ent0010" data-entity-2="ent0011" id="lnk31" data-source-line="111" data-link-type="dependency"><path d="M749.03,360.423 C745.94,364.473 743.21,368.763 741,373.283 C729.48,396.843 726.48,410.453 741,432.283 C744.05,436.863 744.003,437.55 747.893,441.37" style="stroke:#4B0082;stroke-width:1;stroke-dasharray:7,7;" fill="none" id="ClaudeHuman-to-Claude"/><polygon points="751.46,444.873,747.841,435.713,747.893,441.37,742.236,441.421,751.46,444.873" fill="#4B0082" style="stroke:#4B0082;stroke-width:1;stroke-linejoin:miter;stroke-miterlimit:10;"/><text x="752" y="409.252" fill="#000" font-size="16" textLength="68.516">launches</text></g><!--link ClaudeHuman to Claude--><g class="link" data-entity-1="ent0010" data-entity-2="ent0011" id="lnk32" data-source-line="112" data-link-type="dependency"><path d="M834.795,365.302 C835.995,369.632 835.85,369.123 837,373.283 C843.57,397.053 849.589,418.824 855.479,440.154" style="stroke:#4B0082;stroke-width:2;" fill="none" id="ClaudeHuman-Claude"/><polygon points="833.46,360.483,832.009,370.225,834.795,365.302,839.718,368.088,833.46,360.483" fill="#4B0082" style="stroke:#4B0082;stroke-width:2;stroke-linejoin:miter;stroke-miterlimit:10;"/><polygon points="856.81,444.973,858.27,435.233,855.479,440.154,850.559,437.363,856.81,444.973" fill="#4B0082" style="stroke:#4B0082;stroke-width:2;stroke-linejoin:miter;stroke-miterlimit:10;"/><text x="864.07" y="399.752" fill="#000" font-size="16" textLength="127.445">prompts, output</text><text x="873.218" y="418.596" fill="#000" font-size="16" textLength="109.148">and approvals</text></g><!--link ManualHuman to ManualAgent--><g class="link" data-entity-1="ent0014" data-entity-2="ent0015" id="lnk33" data-source-line="113" data-link-type="dependency"><path d="M1157.34,360.623 C1154.49,364.643 1152,368.873 1150,373.283 C1139.18,397.173 1137.61,409.173 1150,432.283 C1154.49,440.663 1157.15,444.704 1164.47,450.964" style="stroke:#4B0082;stroke-width:1;stroke-dasharray:7,7;" fill="none" id="ManualHuman-to-ManualAgent"/><polygon points="1168.27,454.213,1164.03,445.324,1164.47,450.964,1158.83,451.404,1168.27,454.213" fill="#4B0082" style="stroke:#4B0082;stroke-width:1;stroke-linejoin:miter;stroke-miterlimit:10;"/><text x="1161" y="409.252" fill="#000" font-size="16" textLength="68.516">launches</text></g><!--link ManualHuman to ManualAgent--><g class="link" data-entity-1="ent0014" data-entity-2="ent0015" id="lnk34" data-source-line="114" data-link-type="dependency"><path d="M1244.17,365.36 C1245.51,369.59 1245.15,369.093 1246,373.283 C1251.22,398.983 1249.82,406.343 1246,432.283 C1244.93,439.543 1244.48,442.371 1242.41,449.521" style="stroke:#4B0082;stroke-width:2;" fill="none" id="ManualHuman-ManualAgent"/><polygon points="1242.66,360.593,1241.565,370.381,1244.17,365.36,1249.191,367.965,1242.66,360.593" fill="#4B0082" style="stroke:#4B0082;stroke-width:2;stroke-linejoin:miter;stroke-miterlimit:10;"/><polygon points="1241.02,454.323,1247.365,446.791,1242.41,449.521,1239.681,444.566,1241.02,454.323" fill="#4B0082" style="stroke:#4B0082;stroke-width:2;stroke-linejoin:miter;stroke-miterlimit:10;"/><text x="1260.41" y="399.752" fill="#000" font-size="16" textLength="127.445">prompts, output</text><text x="1269.558" y="418.596" fill="#000" font-size="16" textLength="109.148">and approvals</text></g><!--link Claude to ClaudeMCP--><g class="link" data-entity-1="ent0011" data-entity-2="ent0012" id="lnk35" data-source-line="116" data-link-type="dependency"><path d="M817.225,532.171 C814.435,536.161 814.87,536.283 813,540.683 C802.76,564.823 802.76,575.543 813,599.683 C814.87,604.093 814.44,604.202 817.23,608.202" style="stroke:#008080;stroke-width:2;" fill="none" id="Claude-ClaudeMCP"/><polygon points="820.09,528.073,811.654,533.157,817.225,532.171,818.211,537.741,820.09,528.073" fill="#008080" style="stroke:#008080;stroke-width:2;stroke-linejoin:miter;stroke-miterlimit:10;"/><polygon points="820.09,612.303,818.222,602.633,817.23,608.202,811.66,607.21,820.09,612.303" fill="#008080" style="stroke:#008080;stroke-width:2;stroke-linejoin:miter;stroke-miterlimit:10;"/><text x="900.246" y="567.152" fill="#000" font-size="16" textLength="90.875">MCP / stdio</text><text x="824" y="585.996" fill="#000" font-size="16" textLength="243.367">Tools and channel notifications</text></g><!--link ManualAgent to ManualMCP--><g class="link" data-entity-1="ent0015" data-entity-2="ent0016" id="lnk36" data-source-line="117" data-link-type="dependency"><path d="M1218.074,523.338 C1209.274,549.828 1199.708,578.569 1190.098,607.469" style="stroke:#008080;stroke-width:2;" fill="none" id="ManualAgent-ManualMCP"/><polygon points="1219.65,518.593,1213.017,525.873,1218.074,523.338,1220.609,528.395,1219.65,518.593" fill="#008080" style="stroke:#008080;stroke-width:2;stroke-linejoin:miter;stroke-miterlimit:10;"/><polygon points="1188.52,612.213,1195.155,604.935,1190.098,607.469,1187.564,602.411,1188.52,612.213" fill="#008080" style="stroke:#008080;stroke-width:2;stroke-linejoin:miter;stroke-miterlimit:10;"/><text x="1328.319" y="567.152" fill="#000" font-size="16" textLength="90.875">MCP / stdio</text><text x="1223.21" y="585.996" fill="#000" font-size="16" textLength="301.094">send, receive, wait_reply, acknowledge</text></g><!--link Proxy to BrokerSocket--><g class="link" data-entity-1="ent0006" data-entity-2="ent0017" id="lnk37" data-source-line="119" data-link-type="dependency"><path d="M475.749,695.237 C555.349,721.997 659.48,756.363 756,786.083 C772.28,791.093 784.484,794.788 801.494,799.808" style="stroke:#FF1493;stroke-width:2;" fill="none" id="Proxy-BrokerSocket"/><polygon points="471.01,693.643,478.266,700.303,475.749,695.237,480.815,692.72,471.01,693.643" fill="#FF1493" style="stroke:#FF1493;stroke-width:2;stroke-linejoin:miter;stroke-miterlimit:10;"/><polygon points="806.29,801.223,798.79,794.839,801.494,799.808,796.526,802.512,806.29,801.223" fill="#FF1493" style="stroke:#FF1493;stroke-width:2;stroke-linejoin:miter;stroke-miterlimit:10;"/><text x="767" y="763.052" fill="#000" font-size="16" textLength="120.359">Broker protocol</text></g><!--link ClaudeMCP to BrokerSocket--><g class="link" data-entity-1="ent0012" data-entity-2="ent0017" id="lnk38" data-source-line="120" data-link-type="dependency"><path d="M892.618,699.901 C909.068,729.991 926.781,762.366 944.321,794.446" style="stroke:#FF1493;stroke-width:2;" fill="none" id="ClaudeMCP-BrokerSocket"/><polygon points="890.22,695.513,891.027,705.329,892.618,699.901,898.047,701.492,890.22,695.513" fill="#FF1493" style="stroke:#FF1493;stroke-width:2;stroke-linejoin:miter;stroke-miterlimit:10;"/><polygon points="946.72,798.833,945.912,789.018,944.321,794.446,938.893,792.856,946.72,798.833" fill="#FF1493" style="stroke:#FF1493;stroke-width:2;stroke-linejoin:miter;stroke-miterlimit:10;"/><text x="950.71" y="763.052" fill="#000" font-size="16" textLength="120.359">Broker protocol</text></g><!--link ManualMCP to BrokerSocket--><g class="link" data-entity-1="ent0016" data-entity-2="ent0017" id="lnk39" data-source-line="121" data-link-type="dependency"><path d="M1154.083,699.94 C1139.623,728.05 1119.68,760.433 1092,786.083 C1087.24,790.493 1086.114,791.713 1080.754,795.693" style="stroke:#FF1493;stroke-width:2;" fill="none" id="ManualMCP-BrokerSocket"/><polygon points="1156.37,695.493,1148.696,701.667,1154.083,699.94,1155.81,705.326,1156.37,695.493" fill="#FF1493" style="stroke:#FF1493;stroke-width:2;stroke-linejoin:miter;stroke-miterlimit:10;"/><polygon points="1076.74,798.673,1086.35,796.519,1080.754,795.693,1081.581,790.096,1076.74,798.673" fill="#FF1493" style="stroke:#FF1493;stroke-width:2;stroke-linejoin:miter;stroke-miterlimit:10;"/><text x="1147.75" y="763.052" fill="#000" font-size="16" textLength="120.359">Broker protocol</text></g><!--link Console to BrokerSocket--><g class="link" data-entity-1="ent0019" data-entity-2="ent0017" id="lnk40" data-source-line="122" data-link-type="dependency"><path d="M1525.249,697.609 C1507.979,705.769 1494.27,711.893 1477,719.083 C1395.11,753.183 1374.51,762.483 1289,786.083 C1241.7,799.143 1194.605,809.645 1146.725,819.095" style="stroke:#4B0082;stroke-width:2;" fill="none" id="Console-BrokerSocket"/><polygon points="1529.77,695.473,1519.924,695.702,1525.249,697.609,1523.341,702.935,1529.77,695.473" fill="#4B0082" style="stroke:#4B0082;stroke-width:2;stroke-linejoin:miter;stroke-miterlimit:10;"/><polygon points="1141.82,820.063,1151.424,822.245,1146.725,819.095,1149.875,814.396,1141.82,820.063" fill="#4B0082" style="stroke:#4B0082;stroke-width:2;stroke-linejoin:miter;stroke-miterlimit:10;"/><text x="1465.15" y="763.052" fill="#000" font-size="16" textLength="132.047">Read-only status</text></g><!--link BrokerSocket to Broker--><g class="link" data-entity-1="ent0017" data-entity-2="ent0018" id="lnk41" data-source-line="123" data-link-type="dependency"><path d="M974,905.433 C974,926.543 974,940.843 974,960.853" style="stroke:#FF1493;stroke-width:2;" fill="none" id="BrokerSocket-Broker"/><polygon points="974,900.433,970,909.433,974,905.433,978,909.433,974,900.433" fill="#FF1493" style="stroke:#FF1493;stroke-width:2;stroke-linejoin:miter;stroke-miterlimit:10;"/><polygon points="974,965.853,978,956.853,974,960.853,970,956.853,974,965.853" fill="#FF1493" style="stroke:#FF1493;stroke-width:2;stroke-linejoin:miter;stroke-miterlimit:10;"/><text x="985" y="939.792" fill="#000" font-size="16" textLength="156.93">accepts connections</text></g><!--link Broker to Store--><g class="link" data-entity-1="ent0018" data-entity-2="ent0020" id="lnk42" data-source-line="124" data-link-type="dependency"><path d="M974,1054.053 C974,1084.403 974,1115.933 974,1147.333" style="stroke:#181818;stroke-width:1;" fill="none" id="Broker-Store"/><polygon points="974,1049.053,970,1058.053,974,1054.053,978,1058.053,974,1049.053" fill="#181818" style="stroke:#181818;stroke-width:1;stroke-linejoin:miter;stroke-miterlimit:10;"/><polygon points="974,1152.333,978,1143.333,974,1147.333,970,1143.333,974,1152.333" fill="#181818" style="stroke:#181818;stroke-width:1;stroke-linejoin:miter;stroke-miterlimit:10;"/><text x="1000.766" y="1107.192" fill="#000" font-size="16" textLength="180.477">Persist state and replay</text><text x="985" y="1126.036" fill="#000" font-size="16" textLength="212.008">unacknowledged messages</text></g><g class="legend" data-source-line="126"><rect x="603.544" y="1292.123" width="570.912" height="109.465" fill="none" style="stroke:#000;stroke-width:1;" rx="7.5" ry="7.5"/><text x="628.544" y="1330.659" fill="#4B0082" font-size="14" textLength="28">┄┄</text><text x="660.974" y="1330.659" fill="#000" font-size="14" textLength="48.973">Startup</text><text x="727.665" y="1330.659" fill="#4B0082" font-size="14" textLength="28">━━</text><text x="760.095" y="1330.659" fill="#000" font-size="14" textLength="175.403">Human / operator control</text><text x="628.544" y="1347.147" fill="#008080" font-size="14" textLength="28">━━</text><text x="660.974" y="1347.147" fill="#000" font-size="14" textLength="176.34">Native session integration</text><text x="855.032" y="1347.147" fill="#FF1493" font-size="14" textLength="28">━━</text><text x="887.462" y="1347.147" fill="#000" font-size="14" textLength="115.063">Broker messages</text><line x1="603.544" y1="1355.1" x2="1174.456" y2="1355.1" style="stroke:#000;stroke-width:1;"/><text x="628.544" y="1373.635" fill="#000" font-size="14" textLength="520.912">Solid arrows show communication. Each agent has a separate durable inbox.</text></g></g></svg>