<svg xmlns="http://www.w3.org/2000/svg" xmlns:xlink="http://www.w3.org/1999/xlink" version="1.1" data-diagram-type="DESCRIPTION" style="width:1819px;height:1344px;background:#FAFAFA;" width="1819px" height="1344px" viewBox="0 0 1819 1344" zoomAndPan="magnify" preserveAspectRatio="none" contentStyleType="text/css"><?plantuml 1.2026.8?><defs/><g font-family="sans-serif" lengthAdjust="spacing"><rect x="0" y="0" width="1819" height="1344" fill="#FAFAFA" style="stroke:none;"/><g class="title" data-source-line="4"><text x="708.633" y="87.17" fill="#000" font-size="25" textLength="400.623" font-weight="700">collab-ai · How it fits together</text></g><!--cluster Local--><g class="cluster" data-qualified-name="Local" id="ent0001" data-source-line="66"><rect x="31" y="139.443" width="1716" height="1013.94" fill="none" style="stroke:#808080;stroke-width:2;stroke-dasharray:5,5;" rx="2.5" ry="2.5"/><text x="835.32" y="166.912" fill="#000" font-size="16" textLength="107.359" font-weight="700">One machine</text></g><!--cluster CodexPath--><g class="cluster" data-qualified-name="Local.CodexPath" id="ent0002" data-source-line="67"><rect x="55" y="204.443" width="601" height="924.94" fill="none" style="stroke:#808080;stroke-width:2;stroke-dasharray:5,5;" rx="2.5" ry="2.5"/><text x="200.219" y="231.912" fill="#000" font-size="16" textLength="310.563" font-weight="700">Managed Codex · automatic listening</text></g><!--cluster ClaudePath--><g class="cluster" data-qualified-name="Local.ClaudePath" id="ent0009" data-source-line="76"><rect x="680" y="448.293" width="376" height="322.79" fill="none" style="stroke:#808080;stroke-width:2;stroke-dasharray:5,5;" rx="2.5" ry="2.5"/><text x="715.172" y="475.762" fill="#000" font-size="16" textLength="305.656" font-weight="700">Claude channel · automatic listening</text></g><!--cluster ManualPath--><g class="cluster" data-qualified-name="Local.ManualPath" id="ent0012" data-source-line="81"><rect x="1080" y="457.713" width="395" height="313.37" fill="none" style="stroke:#808080;stroke-width:2;stroke-dasharray:5,5;" rx="2.5" ry="2.5"/><text x="1135.242" y="485.182" fill="#000" font-size="16" textLength="284.516" font-weight="700">Alternative · manual inbox checks</text></g><!--entity Broker--><g class="entity" data-qualified-name="Local.Broker" id="ent0015" data-source-line="86"><rect x="888.21" y="859.083" width="259.578" height="82.398" fill="#ADD8E6" style="stroke:#181818;stroke-width:0.5;" rx="2.5" ry="2.5"/><text x="908.21" y="898.419" fill="#000" font-size="20" textLength="167.646" font-weight="700">collab-ai broker</text><text x="908.21" y="918.107" fill="#000" font-size="16" textLength="219.578" font-style="italic">One owner per logical inbox</text></g><!--entity Console--><g class="entity" data-qualified-name="Local.Console" id="ent0016" data-source-line="87"><rect x="1491.43" y="672.683" width="239.148" height="82.398" fill="#FFF3B0" style="stroke:#181818;stroke-width:0.5;" rx="2.5" ry="2.5"/><text x="1511.43" y="712.019" fill="#000" font-size="20" textLength="177.705" font-weight="700">Operator console</text><text x="1511.43" y="731.707" fill="#000" font-size="16" textLength="199.148">collab status / dashboard</text></g><!--entity Store--><g class="entity" data-qualified-name="Local.Store" id="ent0017" data-source-line="88"><path d="M872.35,1036.483 C872.35,1026.483 1018.002,1026.483 1018.002,1026.483 C1018.002,1026.483 1163.655,1026.483 1163.655,1036.483 L1163.655,1107.882 C1163.655,1117.882 1018.002,1117.882 1018.002,1117.882 C1018.002,1117.882 872.35,1117.882 872.35,1107.882 L872.35,1036.483" style="stroke:#181818;stroke-width:0.5;" fill="#F1F1F1"/><path d="M872.35,1036.483 C872.35,1046.483 1018.002,1046.483 1018.002,1046.483 C1018.002,1046.483 1163.655,1046.483 1163.655,1036.483" style="stroke:#181818;stroke-width:0.5;" fill="none"/><text x="892.35" y="1079.819" fill="#000" font-size="20" textLength="65.859" font-weight="700">SQLite</text><text x="892.35" y="1099.507" fill="#000" font-size="16" textLength="251.305">Messages, sessions and receipts</text></g><!--entity Human--><g class="entity" data-qualified-name="Local.CodexPath.Human" id="ent0003" data-source-line="68"><ellipse cx="145.004" cy="269.943" rx="8" ry="8" fill="#F1F1F1" style="stroke:#181818;stroke-width:0.5;"/><path d="M145.004,277.943 L145.004,304.943 M132.004,285.943 L158.004,285.943 M145.004,304.943 L132.004,319.943 M145.004,304.943 L158.004,319.943" style="stroke:#181818;stroke-width:0.5;" fill="none"/><text x="81.5" y="346.912" fill="#000" font-size="16" textLength="127.008">Human operator</text></g><!--entity Launcher--><g class="entity" data-qualified-name="Local.CodexPath.Launcher" id="ent0004" data-source-line="69"><rect x="347.62" y="269.673" width="292.764" height="82.398" fill="#FFF3B0" style="stroke:#181818;stroke-width:0.5;" rx="2.5" ry="2.5"/><text x="367.62" y="309.009" fill="#000" font-size="20" textLength="252.764" font-weight="700">collab-codex --terminal</text><text x="367.62" y="328.697" fill="#000" font-size="16" textLength="137.148" font-style="italic">Launch command</text></g><!--entity UI--><g class="entity" data-qualified-name="Local.CodexPath.UI" id="ent0005" data-source-line="70"><rect x="102.72" y="505.293" width="224.561" height="82.398" fill="#98FB98" style="stroke:#181818;stroke-width:0.5;" rx="2.5" ry="2.5"/><text x="122.72" y="544.629" fill="#000" font-size="20" textLength="184.561" font-weight="700">Codex terminal UI</text><text x="122.72" y="564.317" fill="#000" font-size="16" textLength="184.242" font-style="italic">Normal Codex interface</text></g><!--entity Proxy--><g class="entity" data-qualified-name="Local.CodexPath.Proxy" id="ent0006" data-source-line="71"><rect x="243.49" y="672.683" width="227.021" height="82.398" fill="#ADD8E6" style="stroke:#181818;stroke-width:0.5;" rx="2.5" ry="2.5"/><text x="263.49" y="712.019" fill="#000" font-size="20" textLength="187.021" font-weight="700">Proxy and listener</text><text x="263.49" y="731.707" fill="#000" font-size="16" textLength="153.625" font-style="italic">Inside collab-codex</text></g><!--entity AppServer--><g class="entity" data-qualified-name="Local.CodexPath.AppServer" id="ent0007" data-source-line="72"><rect x="73.43" y="859.083" width="223.135" height="82.398" fill="#98FB98" style="stroke:#181818;stroke-width:0.5;" rx="2.5" ry="2.5"/><text x="93.43" y="898.419" fill="#000" font-size="20" textLength="183.135" font-weight="700">Codex App Server</text><text x="93.43" y="918.107" fill="#000" font-size="16" textLength="163.18" font-style="italic">One managed thread</text></g><!--entity Relay--><g class="entity" data-qualified-name="Local.CodexPath.Relay" id="ent0008" data-source-line="73"><rect x="160.74" y="1030.983" width="200.527" height="82.398" fill="#F1F1F1" style="stroke:#181818;stroke-width:0.5;" rx="2.5" ry="2.5"/><text x="180.74" y="1070.319" fill="#000" font-size="20" textLength="160.527" font-weight="700">MCP stdio relay</text><text x="180.74" y="1090.007" fill="#000" font-size="16" textLength="158.531" font-style="italic">collab_runtime tools</text></g><!--entity Claude--><g class="entity" data-qualified-name="Local.ClaudePath.Claude" id="ent0010" data-source-line="77"><rect x="695.63" y="505.293" width="344.75" height="82.398" fill="#98FB98" style="stroke:#181818;stroke-width:0.5;" rx="2.5" ry="2.5"/><text x="715.63" y="544.629" fill="#000" font-size="20" textLength="129.199" font-weight="700">Claude Code</text><text x="715.63" y="564.317" fill="#000" font-size="16" textLength="304.75" font-style="italic">Channel opt-in and org policy required</text></g><!--entity ClaudeMCP--><g class="entity" data-qualified-name="Local.ClaudePath.ClaudeMCP" id="ent0011" data-source-line="78"><rect x="709.82" y="672.683" width="288.352" height="82.398" fill="#F1F1F1" style="stroke:#181818;stroke-width:0.5;" rx="2.5" ry="2.5"/><text x="729.82" y="712.019" fill="#000" font-size="20" textLength="117.5" font-weight="700">collab-mcp</text><text x="729.82" y="731.707" fill="#000" font-size="16" textLength="248.352">--claude-channel --auto-listen</text></g><!--entity ManualAgent--><g class="entity" data-qualified-name="Local.ManualPath.ManualAgent" id="ent0013" data-source-line="82"><rect x="1095.97" y="514.713" width="268.057" height="63.555" fill="#98FB98" style="stroke:#181818;stroke-width:0.5;" rx="2.5" ry="2.5"/><text x="1115.97" y="554.049" fill="#000" font-size="20" textLength="228.057" font-weight="700">Codex or Claude Code</text></g><!--entity ManualMCP--><g class="entity" data-qualified-name="Local.ManualPath.ManualMCP" id="ent0014" data-source-line="83"><rect x="1096.25" y="672.683" width="157.5" height="82.398" fill="#F1F1F1" style="stroke:#181818;stroke-width:0.5;" rx="2.5" ry="2.5"/><text x="1116.25" y="712.019" fill="#000" font-size="20" textLength="117.5" font-weight="700">collab-mcp</text><text x="1116.25" y="731.707" fill="#000" font-size="16" textLength="104.969" font-style="italic">Default mode</text></g><!--link Human to Launcher--><g class="link" data-entity-1="ent0003" data-entity-2="ent0004" id="lnk18" data-source-line="92" data-link-type="dependency"><path d="M218.59,310.863 C255.98,310.863 297.8,310.863 342.17,310.863" style="stroke:#4B0082;stroke-width:1;stroke-dasharray:7,7;" fill="none" id="Human-to-Launcher"/><polygon points="347.17,310.863,338.17,306.863,342.17,310.863,338.17,314.863,347.17,310.863" fill="#4B0082" style="stroke:#4B0082;stroke-width:1;stroke-linejoin:miter;stroke-miterlimit:10;"/><text x="249.06" y="294.332" fill="#000" font-size="16" textLength="68.516">launches</text></g><!--link Launcher to UI--><g class="link" data-entity-1="ent0004" data-entity-2="ent0005" id="lnk19" data-source-line="93" data-link-type="dependency"><path d="M443.58,352.333 C435.02,359.293 426.23,366.473 418,373.293 C364.25,417.793 307.078,466.461 266.108,501.551" style="stroke:#4B0082;stroke-width:1;stroke-dasharray:7,7;" fill="none" id="Launcher-to-UI"/><polygon points="262.31,504.803,271.748,501.987,266.108,501.551,266.544,495.911,262.31,504.803" fill="#4B0082" style="stroke:#4B0082;stroke-width:1;stroke-linejoin:miter;stroke-miterlimit:10;"/><text x="429" y="409.262" fill="#000" font-size="16" textLength="43.664">starts</text></g><!--link Launcher to Proxy--><g class="link" data-entity-1="ent0004" data-entity-2="ent0006" id="lnk20" data-source-line="94" data-link-type="dependency"><path d="M506.64,352.353 C525.73,421.973 553.29,565.923 489,659.683 C483.97,667.023 481.681,670.276 474.701,675.726" style="stroke:#4B0082;stroke-width:1;stroke-dasharray:7,7;" fill="none" id="Launcher-to-Proxy"/><polygon points="470.76,678.803,480.315,676.417,474.701,675.726,475.392,670.112,470.76,678.803" fill="#4B0082" style="stroke:#4B0082;stroke-width:1;stroke-linejoin:miter;stroke-miterlimit:10;"/><text x="540.2" y="552.962" fill="#000" font-size="16" textLength="34.563">runs</text></g><!--link Proxy to AppServer--><g class="link" data-entity-1="ent0006" data-entity-2="ent0007" id="lnk21" data-source-line="95" data-link-type="dependency"><path d="M243.22,733.883 C185.23,746.133 123.32,764.083 106,787.083 C90.23,808.033 93.68,822.933 106,846.083 C108.41,850.613 108.11,851.05 111.5,854.95" style="stroke:#4B0082;stroke-width:1;stroke-dasharray:7,7;" fill="none" id="Proxy-to-AppServer"/><polygon points="114.78,858.723,111.895,849.307,111.5,854.95,105.857,854.555,114.78,858.723" fill="#4B0082" style="stroke:#4B0082;stroke-width:1;stroke-linejoin:miter;stroke-miterlimit:10;"/><text x="117" y="823.052" fill="#000" font-size="16" textLength="43.664">starts</text></g><!--link Proxy to AppServer--><g class="link" data-entity-1="ent0006" data-entity-2="ent0007" id="lnk25" data-source-line="101" data-link-type="dependency"><path d="M248.304,758.157 C234.614,766.957 226.07,774.723 216,787.083 C199.54,807.303 192.565,830.694 188.935,853.824" style="stroke:#008080;stroke-width:2;" fill="none" id="Proxy-AppServer"/><polygon points="252.51,755.453,242.776,756.955,248.304,758.157,247.102,763.685,252.51,755.453" fill="#008080" style="stroke:#008080;stroke-width:2;stroke-linejoin:miter;stroke-miterlimit:10;"/><polygon points="188.16,858.763,193.507,850.492,188.935,853.824,185.604,849.252,188.16,858.763" fill="#008080" style="stroke:#008080;stroke-width:2;stroke-linejoin:miter;stroke-miterlimit:10;"/><text x="284.77" y="813.552" fill="#000" font-size="16" textLength="141.242">App Server / stdio</text><text x="227" y="832.396" fill="#000" font-size="16" textLength="256.781">Tools and incoming peer context</text></g><!--link AppServer to Relay--><g class="link" data-entity-1="ent0007" data-entity-2="ent0008" id="lnk22" data-source-line="96" data-link-type="dependency"><path d="M151.6,941.693 C149.36,945.843 147.42,950.133 146,954.483 C137.84,979.403 132.23,991.173 146,1013.483 C149.99,1019.943 151.269,1022.329 156.859,1027.469" style="stroke:#4B0082;stroke-width:1;stroke-dasharray:7,7;" fill="none" id="AppServer-to-Relay"/><polygon points="160.54,1030.853,156.622,1021.817,156.859,1027.469,151.208,1027.706,160.54,1030.853" fill="#4B0082" style="stroke:#4B0082;stroke-width:1;stroke-linejoin:miter;stroke-miterlimit:10;"/><text x="157" y="990.452" fill="#000" font-size="16" textLength="43.664">starts</text></g><!--link AppServer to Relay--><g class="link" data-entity-1="ent0007" data-entity-2="ent0008" id="lnk26" data-source-line="102" data-link-type="dependency"><path d="M212.825,946.196 C215.165,950.416 214.98,950.313 217,954.483 C228.94,979.133 238.173,1003.203 246.133,1026.013" style="stroke:#008080;stroke-width:2;" fill="none" id="AppServer-Relay"/><polygon points="210.4,941.823,211.266,951.634,212.825,946.196,218.263,947.755,210.4,941.823" fill="#008080" style="stroke:#008080;stroke-width:2;stroke-linejoin:miter;stroke-miterlimit:10;"/><polygon points="247.78,1030.733,248.591,1020.918,246.133,1026.013,241.038,1023.554,247.78,1030.733" fill="#008080" style="stroke:#008080;stroke-width:2;stroke-linejoin:miter;stroke-miterlimit:10;"/><text x="251.69" y="990.452" fill="#000" font-size="16" textLength="90.875">MCP / stdio</text></g><!--link Human to UI--><g class="link" data-entity-1="ent0003" data-entity-2="ent0005" id="lnk23" data-source-line="99" data-link-type="dependency"><path d="M161.025,365.343 C173.845,408.143 189.415,460.104 201.445,500.244" style="stroke:#4B0082;stroke-width:2;" fill="none" id="Human-UI"/><polygon points="159.59,360.553,158.341,370.323,161.025,365.343,166.004,368.027,159.59,360.553" fill="#4B0082" style="stroke:#4B0082;stroke-width:2;stroke-linejoin:miter;stroke-miterlimit:10;"/><polygon points="202.88,505.033,204.128,495.264,201.445,500.244,196.465,497.561,202.88,505.033" fill="#4B0082" style="stroke:#4B0082;stroke-width:2;stroke-linejoin:miter;stroke-miterlimit:10;"/><text x="191" y="399.762" fill="#000" font-size="16" textLength="127.445">prompts, output</text><text x="200.148" y="418.606" fill="#000" font-size="16" textLength="109.148">and approvals</text></g><!--link UI to Proxy--><g class="link" data-entity-1="ent0005" data-entity-2="ent0006" id="lnk24" data-source-line="100" data-link-type="dependency"><path d="M200.772,592.884 C195.892,615.874 195.61,639.173 210,659.683 C218.57,671.903 225.882,678.9 238.932,686.17" style="stroke:#008080;stroke-width:2;" fill="none" id="UI-Proxy"/><polygon points="201.81,587.993,196.028,595.967,200.772,592.884,203.854,597.628,201.81,587.993" fill="#008080" style="stroke:#008080;stroke-width:2;stroke-linejoin:miter;stroke-miterlimit:10;"/><polygon points="243.3,688.603,237.384,680.729,238.932,686.17,233.491,687.718,243.3,688.603" fill="#008080" style="stroke:#008080;stroke-width:2;stroke-linejoin:miter;stroke-miterlimit:10;"/><text x="221" y="636.652" fill="#000" font-size="16" textLength="251.344">WebSocket / private Unix socket</text></g><!--link Relay to Proxy--><g class="link" data-entity-1="ent0008" data-entity-2="ent0006" id="lnk27" data-source-line="103" data-link-type="dependency"><path d="M351.875,1027.226 C357.525,1022.106 358.88,1019.783 363,1013.483 C400.79,955.763 330.31,907.963 379,859.083 C398.09,839.923 481.93,866.203 500,846.083 C508.76,836.333 506.87,798.253 500,787.083 C492.28,774.533 485.676,767.007 473.636,758.327" style="stroke:#008080;stroke-width:2;" fill="none" id="Relay-Proxy"/><polygon points="348.17,1030.583,357.525,1027.504,351.875,1027.226,352.153,1021.576,348.17,1030.583" fill="#008080" style="stroke:#008080;stroke-width:2;stroke-linejoin:miter;stroke-miterlimit:10;"/><polygon points="469.58,755.403,474.541,763.911,473.636,758.327,479.22,757.422,469.58,755.403" fill="#008080" style="stroke:#008080;stroke-width:2;stroke-linejoin:miter;stroke-miterlimit:10;"/><text x="409.211" y="897.252" fill="#000" font-size="16" textLength="201.477">MCP / private Unix socket</text><text x="390" y="916.096" fill="#000" font-size="16" textLength="239.898">Same listener and inbox owner</text></g><!--link Claude to ClaudeMCP--><g class="link" data-entity-1="ent0010" data-entity-2="ent0011" id="lnk28" data-source-line="105" data-link-type="dependency"><path d="M817.225,592.171 C814.435,596.161 814.87,596.283 813,600.683 C802.76,624.833 804.54,634.863 813,659.683 C814.47,663.993 813.988,663.866 816.278,667.936" style="stroke:#008080;stroke-width:2;" fill="none" id="Claude-ClaudeMCP"/><polygon points="820.09,588.073,811.654,593.157,817.225,592.171,818.211,597.741,820.09,588.073" fill="#008080" style="stroke:#008080;stroke-width:2;stroke-linejoin:miter;stroke-miterlimit:10;"/><polygon points="818.73,672.293,817.803,662.488,816.278,667.936,810.831,666.411,818.73,672.293" fill="#008080" style="stroke:#008080;stroke-width:2;stroke-linejoin:miter;stroke-miterlimit:10;"/><text x="900.246" y="627.152" fill="#000" font-size="16" textLength="90.875">MCP / stdio</text><text x="824" y="645.996" fill="#000" font-size="16" textLength="243.367">Tools and channel notifications</text></g><!--link ManualAgent to ManualMCP--><g class="link" data-entity-1="ent0013" data-entity-2="ent0014" id="lnk29" data-source-line="106" data-link-type="dependency"><path d="M1218.073,583.348 C1209.273,609.828 1199.707,638.569 1190.097,667.479" style="stroke:#008080;stroke-width:2;" fill="none" id="ManualAgent-ManualMCP"/><polygon points="1219.65,578.603,1213.016,585.883,1218.073,583.348,1220.608,588.406,1219.65,578.603" fill="#008080" style="stroke:#008080;stroke-width:2;stroke-linejoin:miter;stroke-miterlimit:10;"/><polygon points="1188.52,672.223,1195.155,664.945,1190.097,667.479,1187.563,662.421,1188.52,672.223" fill="#008080" style="stroke:#008080;stroke-width:2;stroke-linejoin:miter;stroke-miterlimit:10;"/><text x="1328.319" y="627.152" fill="#000" font-size="16" textLength="90.875">MCP / stdio</text><text x="1223.21" y="645.996" fill="#000" font-size="16" textLength="301.094">send, receive, wait_reply, acknowledge</text></g><!--link Proxy to Broker--><g class="link" data-entity-1="ent0006" data-entity-2="ent0015" id="lnk30" data-source-line="108" data-link-type="dependency"><path d="M462.645,757.641 C482.385,767.031 498.01,775.543 516,787.083 C549.68,808.693 547.44,829.833 584,846.083 C597.93,852.273 760.27,871.094 883,884.664" style="stroke:#FF1493;stroke-width:2;" fill="none" id="Proxy-Broker"/><polygon points="458.13,755.493,464.539,762.972,462.645,757.641,467.976,755.747,458.13,755.493" fill="#FF1493" style="stroke:#FF1493;stroke-width:2;stroke-linejoin:miter;stroke-miterlimit:10;"/><polygon points="887.97,885.213,879.464,880.249,883,884.664,878.585,888.2,887.97,885.213" fill="#FF1493" style="stroke:#FF1493;stroke-width:2;stroke-linejoin:miter;stroke-miterlimit:10;"/><text x="595" y="823.052" fill="#000" font-size="16" textLength="229.82">Broker protocol / Unix socket</text></g><!--link ClaudeMCP to Broker--><g class="link" data-entity-1="ent0011" data-entity-2="ent0015" id="lnk31" data-source-line="109" data-link-type="dependency"><path d="M845.348,760.331 C842.098,788.571 843.48,820.633 863,846.083 C869.93,855.113 874.292,859.876 883.782,866.116" style="stroke:#FF1493;stroke-width:2;" fill="none" id="ClaudeMCP-Broker"/><polygon points="845.92,755.363,840.917,763.847,845.348,760.331,848.865,764.762,845.92,755.363" fill="#FF1493" style="stroke:#FF1493;stroke-width:2;stroke-linejoin:miter;stroke-miterlimit:10;"/><polygon points="887.96,868.863,882.638,860.576,883.782,866.116,878.242,867.261,887.96,868.863" fill="#FF1493" style="stroke:#FF1493;stroke-width:2;stroke-linejoin:miter;stroke-miterlimit:10;"/><text x="874" y="823.052" fill="#000" font-size="16" textLength="229.82">Broker protocol / Unix socket</text></g><!--link ManualMCP to Broker--><g class="link" data-entity-1="ent0014" data-entity-2="ent0015" id="lnk32" data-source-line="110" data-link-type="dependency"><path d="M1166.108,760.252 C1158.988,788.502 1147.11,820.693 1124,846.083 C1119.84,850.653 1119.124,851.784 1114.174,855.694" style="stroke:#FF1493;stroke-width:2;" fill="none" id="ManualMCP-Broker"/><polygon points="1167.33,755.403,1161.252,763.153,1166.108,760.252,1169.009,765.108,1167.33,755.403" fill="#FF1493" style="stroke:#FF1493;stroke-width:2;stroke-linejoin:miter;stroke-miterlimit:10;"/><polygon points="1110.25,858.793,1119.792,856.354,1114.174,855.694,1114.833,850.076,1110.25,858.793" fill="#FF1493" style="stroke:#FF1493;stroke-width:2;stroke-linejoin:miter;stroke-miterlimit:10;"/><text x="1167.38" y="823.052" fill="#000" font-size="16" textLength="229.82">Broker protocol / Unix socket</text></g><!--link Console to Broker--><g class="link" data-entity-1="ent0016" data-entity-2="ent0015" id="lnk33" data-source-line="111" data-link-type="dependency"><path d="M1560.785,758.501 C1523.515,788.691 1472.29,825.043 1417,846.083 C1330.95,878.833 1232.78,891.649 1152.91,896.679" style="stroke:#4B0082;stroke-width:2;" fill="none" id="Console-Broker"/><polygon points="1564.67,755.353,1555.159,757.91,1560.785,758.501,1560.194,764.127,1564.67,755.353" fill="#4B0082" style="stroke:#4B0082;stroke-width:2;stroke-linejoin:miter;stroke-miterlimit:10;"/><polygon points="1147.92,896.993,1157.154,900.42,1152.91,896.679,1156.651,892.436,1147.92,896.993" fill="#4B0082" style="stroke:#4B0082;stroke-width:2;stroke-linejoin:miter;stroke-miterlimit:10;"/><text x="1533.38" y="823.052" fill="#000" font-size="16" textLength="241.508">Read-only status / Unix socket</text></g><!--link Broker to Store--><g class="link" data-entity-1="ent0015" data-entity-2="ent0017" id="lnk34" data-source-line="112" data-link-type="dependency"><path d="M1018,946.983 C1018,972.313 1018,994.913 1018,1021.043" style="stroke:#181818;stroke-width:1;" fill="none" id="Broker-Store"/><polygon points="1018,941.983,1014,950.983,1018,946.983,1022,950.983,1018,941.983" fill="#181818" style="stroke:#181818;stroke-width:1;stroke-linejoin:miter;stroke-miterlimit:10;"/><polygon points="1018,1026.043,1022,1017.043,1018,1021.043,1014,1017.043,1018,1026.043" fill="#181818" style="stroke:#181818;stroke-width:1;stroke-linejoin:miter;stroke-miterlimit:10;"/><text x="1044.766" y="980.952" fill="#000" font-size="16" textLength="180.477">Persist state and replay</text><text x="1029" y="999.796" fill="#000" font-size="16" textLength="212.008">unacknowledged messages</text></g><g class="legend" data-source-line="114"><rect x="623.488" y="1185.383" width="570.912" height="109.465" fill="none" style="stroke:#000;stroke-width:1;" rx="7.5" ry="7.5"/><text x="648.488" y="1223.919" fill="#4B0082" font-size="14" textLength="28">┄┄</text><text x="680.918" y="1223.919" fill="#000" font-size="14" textLength="48.973">Startup</text><text x="747.609" y="1223.919" fill="#4B0082" font-size="14" textLength="28">━━</text><text x="780.039" y="1223.919" fill="#000" font-size="14" textLength="175.403">Human / operator control</text><text x="648.488" y="1240.407" fill="#008080" font-size="14" textLength="28">━━</text><text x="680.918" y="1240.407" fill="#000" font-size="14" textLength="176.34">Native session integration</text><text x="874.976" y="1240.407" fill="#FF1493" font-size="14" textLength="28">━━</text><text x="907.406" y="1240.407" fill="#000" font-size="14" textLength="115.063">Broker messages</text><line x1="623.488" y1="1248.36" x2="1194.4" y2="1248.36" style="stroke:#000;stroke-width:1;"/><text x="648.488" y="1266.895" fill="#000" font-size="14" textLength="520.912">Solid arrows show communication. Each agent has a separate durable inbox.</text></g></g></svg>